<svg width="64" height="64" viewBox="0 0 64 64" fill="none" xmlns="http://www.w3.org/2000/svg">
<g clip-path="url(#clip0_7_28)">
<rect width="64" height="64" rx="12" fill="#130044"/>
<path fill-rule="evenodd" clip-rule="evenodd" d="M24 32.7905L38 25L30.9922 39L28.4497 34.4521L24 32.7905Z" fill="white"/>
<path d="M37.7342 10.9189C38.0689 11.0195 38.4016 11.1298 38.7286 11.2459C39.0575 11.3639 39.3844 11.4896 39.7094 11.6251C40.0344 11.7605 40.3575 11.9036 40.6748 12.0526C40.992 12.2035 41.3074 12.3621 41.6169 12.5285C41.9284 12.6949 42.234 12.869 42.5358 13.0489C42.8376 13.2308 43.1356 13.4184 43.4257 13.6138C43.7198 13.8092 44.0081 14.0123 44.2905 14.2232C44.573 14.4341 44.8515 14.6507 45.1224 14.8732C45.3951 15.0976 45.6621 15.3278 45.9214 15.5639C46.1806 15.7979 46.434 16.0417 46.6836 16.2893L46.7203 16.3242C46.968 16.5718 47.2117 16.8271 47.4477 17.0903C47.6838 17.3495 47.914 17.6165 48.1345 17.8873C48.357 18.1581 48.5737 18.4348 48.7826 18.7153C48.9915 18.9978 49.1927 19.2841 49.3881 19.5762C49.5835 19.8683 49.7731 20.1662 49.955 20.468C50.1349 20.7698 50.309 21.0755 50.4734 21.385C50.6398 21.6946 50.7984 22.0099 50.9493 22.3272C51.0983 22.6425 51.2415 22.9636 51.3749 23.2887L51.3827 23.308C51.5162 23.6291 51.64 23.9522 51.7561 24.2753C51.8721 24.6003 51.9805 24.9292 52.0811 25.2639C52.1817 25.5986 52.2765 25.9371 52.3616 26.2776C52.4467 26.6181 52.5222 26.9605 52.5918 27.3029C52.6576 27.6434 52.7175 27.9897 52.7698 28.3379C52.8201 28.6823 52.8626 29.0324 52.8975 29.3865C52.9323 29.7366 52.9574 30.0887 52.9748 30.4408C52.9923 30.7929 53 31.1469 53 31.501C53 31.8531 52.9923 32.2071 52.9748 32.5592C52.9574 32.9113 52.9323 33.2634 52.8975 33.6155C52.8626 33.9695 52.8201 34.3177 52.7698 34.6621C52.7175 35.0103 52.6576 35.3566 52.5918 35.6971C52.5222 36.0414 52.4467 36.3839 52.3616 36.7243C52.2765 37.0629 52.1836 37.3995 52.0811 37.7342C51.9824 38.0669 51.8721 38.3958 51.7561 38.7228C51.64 39.0458 51.5162 39.3689 51.3827 39.6901L51.3749 39.7113C51.2415 40.0364 51.0983 40.3575 50.9474 40.6748C50.7984 40.992 50.6398 41.3054 50.4734 41.6169C50.3071 41.9264 50.1329 42.2321 49.953 42.5339C49.7712 42.8357 49.5816 43.1336 49.3862 43.4257C49.1908 43.7179 48.9877 44.0061 48.7768 44.2886C48.5679 44.573 48.3512 44.8496 48.1268 45.1224C47.9024 45.3951 47.6702 45.6621 47.4342 45.9233C47.1982 46.1825 46.9564 46.4379 46.7087 46.6855L46.6797 46.7165C46.4321 46.9641 46.1767 47.2079 45.9156 47.4439C45.6544 47.6799 45.3874 47.9101 45.1166 48.1326C44.8457 48.3551 44.5671 48.5717 44.2866 48.7807C44.0042 48.9915 43.7159 49.1927 43.4257 49.3881C43.1336 49.5835 42.8357 49.7712 42.5339 49.953C42.234 50.1329 41.9284 50.3071 41.6169 50.4734C41.3054 50.6379 40.992 50.7984 40.6728 50.9474C40.3556 51.0983 40.0344 51.2415 39.7094 51.3749C39.3863 51.5104 39.0594 51.6361 38.7305 51.7541C38.4036 51.8702 38.0708 51.9805 37.7361 52.083C37.4014 52.1836 37.0629 52.2765 36.7243 52.3616C36.3839 52.4467 36.0414 52.5241 35.6971 52.5918C35.3566 52.6595 35.0103 52.7195 34.6621 52.7698C34.3177 52.8201 33.9695 52.8626 33.6155 52.8975C33.2634 52.9323 32.9113 52.9574 32.5592 52.9748C32.2071 52.9923 31.8531 53 31.499 53C31.145 53 30.7929 52.9923 30.4408 52.9748C30.0887 52.9574 29.7347 52.9323 29.3845 52.8975C29.0305 52.8626 28.6823 52.8201 28.3379 52.7698C27.9897 52.7195 27.6434 52.6595 27.3029 52.5918C26.9586 52.5241 26.6161 52.4467 26.2757 52.3616C25.9371 52.2765 25.5986 52.1836 25.2639 52.0811C24.9292 51.9805 24.5964 51.8702 24.2695 51.7541C23.9406 51.6361 23.6137 51.5104 23.2906 51.3749C22.9656 51.2415 22.6425 51.0983 22.3252 50.9474C22.008 50.7965 21.6926 50.6379 21.3831 50.4715C21.0716 50.3051 20.766 50.1329 20.4642 49.9511C20.1624 49.7712 19.8644 49.5816 19.5743 49.3862C19.2821 49.1908 18.9939 48.9877 18.7095 48.7768C18.427 48.5679 18.1504 48.3512 17.8776 48.1268C17.6048 47.9024 17.3379 47.6722 17.0786 47.4361C16.8175 47.2001 16.564 46.9583 16.3164 46.7087L16.2719 46.67C16.0262 46.4224 15.7844 46.167 15.5484 45.9059C15.3124 45.6466 15.0841 45.3797 14.8616 45.1108C14.6391 44.8399 14.4244 44.5633 14.2155 44.2828C14.0065 44.0003 13.8053 43.7159 13.6119 43.4257C13.4165 43.1317 13.2269 42.8357 13.045 42.532C12.8651 42.2321 12.691 41.9245 12.5246 41.615C12.3602 41.3054 12.2016 40.992 12.0507 40.6748C11.9017 40.3575 11.7585 40.0364 11.6251 39.7113L11.6173 39.692C11.4838 39.3709 11.36 39.0478 11.2439 38.7228C11.1279 38.3978 11.0176 38.0669 10.917 37.7361C10.8164 37.4014 10.7235 37.0629 10.6384 36.7243C10.5533 36.3839 10.4778 36.0414 10.4082 35.6971C10.3405 35.3566 10.2824 35.0103 10.2302 34.6621C10.1799 34.3177 10.1374 33.9695 10.1025 33.6155C10.0677 33.2653 10.0426 32.9113 10.0251 32.5592C10.0077 32.2071 10 31.8531 10 31.501C10 31.145 10.0077 30.7929 10.0251 30.4408C10.0426 30.0887 10.0677 29.7347 10.1025 29.3845C10.1374 29.0305 10.1799 28.6823 10.2302 28.3379C10.2824 27.9897 10.3405 27.6434 10.4082 27.3029C10.4778 26.9586 10.5533 26.6161 10.6384 26.2757C10.7235 25.9371 10.8164 25.6005 10.9189 25.2658C11.0195 24.9331 11.1279 24.6022 11.2439 24.2772C11.36 23.9522 11.4838 23.6291 11.6173 23.308L11.6251 23.2887C11.7585 22.9636 11.9017 22.6425 12.0507 22.3252C12.2016 22.008 12.3602 21.6946 12.5266 21.385C12.6929 21.0736 12.8651 20.7679 13.047 20.4661C13.2288 20.1643 13.4165 19.8664 13.6119 19.5743C13.8092 19.2821 14.0123 18.9939 14.2232 18.7095C14.4321 18.427 14.6488 18.1504 14.8732 17.8776C15.0976 17.6048 15.3278 17.3379 15.5639 17.0786C15.7999 16.8194 16.0417 16.564 16.2913 16.3164L16.3319 16.2719C16.5776 16.0262 16.833 15.7844 17.0941 15.5484C17.3534 15.3124 17.6203 15.0841 17.8892 14.8635C18.1601 14.6411 18.4367 14.4244 18.7172 14.2155C18.9978 14.0085 19.2841 13.8053 19.5743 13.6119C19.8664 13.4165 20.1643 13.2288 20.4661 13.047C20.7679 12.8671 21.0736 12.6929 21.3831 12.5266C21.6946 12.3621 22.008 12.2035 22.3252 12.0526C22.6425 11.9036 22.9656 11.7605 23.2906 11.6251C23.6117 11.4916 23.9387 11.3658 24.2656 11.2478C24.5945 11.1298 24.9292 11.0195 25.2639 10.9189C25.5986 10.8164 25.9371 10.7235 26.2757 10.6384C26.6161 10.5533 26.9586 10.4778 27.3029 10.4082C27.6434 10.3424 27.9897 10.2824 28.3379 10.2302C28.6823 10.1799 29.0305 10.1374 29.3845 10.1025C29.7347 10.0677 30.0887 10.0426 30.4408 10.0251C30.7929 10.0077 31.145 10 31.499 10C31.8531 10 32.2071 10.0077 32.5592 10.0251C32.9113 10.0426 33.2634 10.0677 33.6155 10.1025C33.9676 10.1374 34.3177 10.1799 34.6621 10.2302C35.0103 10.2824 35.3566 10.3424 35.6971 10.4082C36.0414 10.4778 36.3819 10.5533 36.7224 10.6384C37.061 10.7235 37.3995 10.8164 37.7342 10.9189ZM39.692 16.1617C39.4424 16.0282 39.1871 15.9005 38.9298 15.7767C38.6705 15.6567 38.4113 15.5406 38.1482 15.4323C37.889 15.3259 37.6239 15.2234 37.3531 15.1266C37.0842 15.0299 36.8133 14.9409 36.5406 14.8577C36.2697 14.7765 35.9969 14.701 35.7203 14.6314C35.4475 14.5637 35.1709 14.5018 34.8904 14.4457C34.6118 14.3915 34.3313 14.3412 34.0488 14.3006C33.7683 14.258 33.4858 14.2251 33.2053 14.1961C32.9248 14.169 32.6404 14.1477 32.3541 14.1342C32.0717 14.1207 31.7873 14.1129 31.499 14.1129C31.2127 14.1129 30.9264 14.1207 30.6459 14.1342C30.3596 14.1477 30.0752 14.169 29.7947 14.1961C29.5141 14.2251 29.2317 14.258 28.9512 14.3006C28.6687 14.3412 28.3882 14.3915 28.1096 14.4457C27.8291 14.5018 27.5525 14.5637 27.2797 14.6314C27.005 14.6991 26.7322 14.7765 26.4594 14.8577C26.1886 14.9409 25.9178 15.0299 25.6469 15.1266C25.3761 15.2234 25.111 15.3259 24.8518 15.4323C24.5887 15.5406 24.3275 15.6567 24.0702 15.7767C23.8129 15.9005 23.5576 16.0282 23.308 16.1617C23.0565 16.2951 22.8089 16.4364 22.5651 16.5815C22.3194 16.7285 22.0795 16.8813 21.8435 17.038C21.6075 17.1947 21.3754 17.3572 21.149 17.5255C20.9227 17.6938 20.6982 17.868 20.4777 18.0498C20.2552 18.2297 20.0405 18.4154 19.8335 18.6031C19.6246 18.7927 19.4195 18.9861 19.2183 19.1873L19.1989 19.2067C18.9978 19.4079 18.8004 19.6149 18.6108 19.8238C18.4212 20.0328 18.2355 20.2494 18.0556 20.47C17.8718 20.6924 17.6958 20.9188 17.5275 21.1471C17.3592 21.3734 17.1967 21.6056 17.038 21.8416C16.8794 22.0795 16.7285 22.3214 16.5815 22.5651C16.4344 22.8089 16.2951 23.0565 16.1597 23.308C16.0282 23.5576 15.8985 23.8129 15.7767 24.0702C15.6567 24.3275 15.5406 24.5887 15.4323 24.8518C15.324 25.111 15.2214 25.378 15.1247 25.6488C15.0299 25.9158 14.9409 26.1867 14.8577 26.4614C14.7746 26.7322 14.6991 27.0069 14.6314 27.2797C14.5617 27.5544 14.4998 27.8311 14.4457 28.1096C14.3896 28.3882 14.3412 28.6687 14.3006 28.9512C14.258 29.2317 14.2232 29.5141 14.1961 29.7947C14.169 30.0752 14.1477 30.3596 14.1342 30.6439C14.1207 30.9264 14.1129 31.2127 14.1129 31.501C14.1129 31.7873 14.1207 32.0736 14.1342 32.3541C14.1477 32.6404 14.169 32.9248 14.1961 33.2053C14.2232 33.4858 14.258 33.7683 14.3006 34.0507C14.3412 34.3313 14.3896 34.6118 14.4457 34.8904C14.4998 35.1709 14.5637 35.4475 14.6314 35.7222C14.701 35.9989 14.7765 36.2717 14.8577 36.5406C14.939 36.8114 15.0299 37.0822 15.1266 37.3531C15.2234 37.6239 15.324 37.889 15.4323 38.1501C15.5406 38.4113 15.6567 38.6725 15.7767 38.9298C15.8985 39.1871 16.0282 39.4424 16.1617 39.692C16.2951 39.9435 16.4364 40.1911 16.5815 40.4349C16.7285 40.6806 16.8813 40.9205 17.038 41.1584C17.1967 41.3944 17.3592 41.6266 17.5294 41.8549C17.6977 42.0831 17.8738 42.3076 18.0556 42.53C18.2375 42.7525 18.4232 42.9692 18.6128 43.1781C18.8024 43.3871 18.9978 43.5941 19.1989 43.7952L19.2048 43.8011C19.4059 44.0022 19.6129 44.1976 19.8219 44.3872C20.0328 44.5768 20.2494 44.7645 20.47 44.9444C20.6924 45.1282 20.9169 45.3023 21.1451 45.4725C21.3734 45.6408 21.6056 45.8033 21.8435 45.962C22.0795 46.1206 22.3214 46.2715 22.5651 46.4185C22.8089 46.5656 23.0565 46.7049 23.308 46.8403C23.5576 46.9738 23.8129 47.1015 24.0702 47.2233C24.3275 47.3433 24.5887 47.4593 24.8518 47.5677C25.111 47.676 25.378 47.7786 25.6488 47.8753C25.9178 47.972 26.1886 48.061 26.4594 48.1423C26.7322 48.2254 27.005 48.3009 27.2816 48.3686C27.5525 48.4363 27.8291 48.5002 28.1077 48.5543C28.3882 48.6104 28.6687 48.6588 28.9512 48.6994C29.2317 48.742 29.5141 48.7768 29.7947 48.8039C30.0752 48.831 30.3576 48.8523 30.6439 48.8658C30.9264 48.8793 31.2127 48.8871 31.499 48.8871C31.7873 48.8871 32.0736 48.8793 32.3561 48.8658C32.6404 48.8523 32.9248 48.831 33.2053 48.8039C33.4858 48.7768 33.7664 48.742 34.0488 48.6994C34.3313 48.6588 34.6118 48.6104 34.8923 48.5543C35.1709 48.4982 35.4495 48.4363 35.7222 48.3686C35.9989 48.299 36.2717 48.2235 36.5406 48.1423C36.8114 48.061 37.0803 47.972 37.3511 47.8753C37.622 47.7786 37.889 47.676 38.1482 47.5677C38.4113 47.4593 38.6725 47.3433 38.9298 47.2214C39.1871 47.0995 39.4424 46.9718 39.692 46.8383C39.9435 46.7049 40.1911 46.5656 40.4349 46.4185C40.6806 46.2715 40.9205 46.1206 41.1565 45.962C41.3944 45.8033 41.6266 45.6408 41.8549 45.4725C42.0812 45.3023 42.3076 45.1282 42.53 44.9444C42.7506 44.7645 42.9672 44.5768 43.1781 44.3872C43.3871 44.1976 43.5921 44.0022 43.7933 43.8011L43.8127 43.7817C44.0139 43.5805 44.2073 43.3754 44.3969 43.1665C44.5865 42.9576 44.7703 42.7428 44.9502 42.5223C45.132 42.3017 45.3062 42.0773 45.4745 41.851C45.6428 41.6246 45.8053 41.3925 45.962 41.1565C46.1206 40.9205 46.2734 40.6786 46.4185 40.4349C46.5656 40.1911 46.7049 39.9435 46.8403 39.692C46.9718 39.4424 47.0995 39.1871 47.2214 38.9298C47.3433 38.6725 47.4593 38.4113 47.5677 38.1501C47.6741 37.889 47.7766 37.6239 47.8734 37.3511C47.9701 37.0822 48.0591 36.8114 48.1423 36.5406C48.2235 36.2717 48.299 35.9989 48.3686 35.7203C48.4363 35.4475 48.4982 35.1709 48.5543 34.8923C48.6085 34.6137 48.6569 34.3313 48.6994 34.0507C48.742 33.7683 48.7768 33.4858 48.8039 33.2053C48.831 32.9248 48.8523 32.6404 48.8658 32.3541C48.8793 32.0736 48.8871 31.7873 48.8871 31.501C48.8871 31.2127 48.8793 30.9264 48.8658 30.6459C48.8523 30.3596 48.831 30.0752 48.8039 29.7947C48.7768 29.5141 48.742 29.2317 48.6994 28.9512C48.6569 28.6687 48.6085 28.3882 48.5543 28.1077C48.4982 27.8291 48.4363 27.5525 48.3686 27.2797C48.299 27.0031 48.2235 26.7283 48.1423 26.4594C48.061 26.1886 47.9701 25.9178 47.8734 25.6469C47.7766 25.3761 47.6741 25.111 47.5677 24.8518C47.4593 24.5887 47.3433 24.3275 47.2214 24.0702C47.0995 23.8129 46.9718 23.5576 46.8383 23.308C46.7049 23.0584 46.5656 22.8108 46.4185 22.5671C46.2734 22.3214 46.1206 22.0795 45.962 21.8435C45.8033 21.6075 45.6408 21.3734 45.4706 21.1451C45.3023 20.9188 45.1282 20.6924 44.9463 20.4719C44.7664 20.2514 44.5826 20.0386 44.3969 19.8335C44.2112 19.6265 44.0177 19.4234 43.8204 19.226L43.7952 19.1989C43.5921 18.9978 43.3871 18.8024 43.1762 18.6128C42.9692 18.4232 42.7525 18.2375 42.53 18.0556C42.3076 17.8738 42.0812 17.6977 41.8549 17.5294C41.6266 17.3592 41.3944 17.1967 41.1565 17.038C40.9205 16.8794 40.6786 16.7265 40.4349 16.5815C40.1911 16.4344 39.9435 16.2951 39.692 16.1617Z" fill="#30C680"/>
</g>
<defs>
<clipPath id="clip0_7_28">
<rect width="64" height="64" fill="none"/>
</clipPath>
</defs>
</svg>
